<svg width="76" height="67" viewBox="0 0 76 67" fill="none" xmlns="http://www.w3.org/2000/svg">
<g clip-path="url(#clip0)">
<path d="M38 67C58.9868 67 76 52.0015 76 33.5C76 14.9985 58.9868 0 38 0C17.0132 0 0 14.9985 0 33.5C0 52.0015 17.0132 67 38 67Z" fill="#F54B00"/>
<path d="M64.125 32.0328C64.125 29.0806 61.4009 26.6785 58.0515 26.6785C56.5197 26.6785 55.122 27.1857 54.0526 28.0138C50.2473 25.8588 45.2164 24.4565 39.6453 24.211L42.5748 16.048L50.5679 17.7073C50.6576 20.0853 52.874 21.9974 55.594 21.9974C58.3698 21.9974 60.6284 20.0068 60.6284 17.5592C60.6284 15.1116 58.3692 13.121 55.594 13.121C53.5776 13.121 51.8397 14.1736 51.0358 15.6853L42.0541 13.8224C41.4592 13.6994 40.8547 14.0014 40.6725 14.5154L37.2044 24.1791C31.2728 24.2817 25.8917 25.6939 21.8589 27.9432C20.8014 27.1559 19.4364 26.6785 17.9485 26.6785C14.5991 26.6791 11.875 29.0806 11.875 32.0328C11.875 33.9124 12.9818 35.5649 14.6478 36.5197C14.5629 36.9991 14.5172 37.4849 14.5172 37.9764C14.5172 45.5898 25.0028 51.7842 37.8931 51.7842C50.7822 51.7842 61.2691 45.5898 61.2691 37.9764C61.2691 37.5205 61.2299 37.0698 61.1568 36.6238C62.9292 35.69 64.125 33.9847 64.125 32.0328ZM55.594 15.1844C57.0802 15.1844 58.289 16.2506 58.289 17.5608C58.289 18.8709 57.0802 19.9367 55.594 19.9367C54.1073 19.9367 52.8984 18.8709 52.8984 17.5608C52.8984 16.2506 54.1073 15.1844 55.594 15.1844ZM14.2144 32.0328C14.2144 30.218 15.8893 28.7409 17.9479 28.7409C18.6432 28.7409 19.2927 28.9131 19.8514 29.2067C17.768 30.6991 16.2088 32.4552 15.3294 34.3746C14.6413 33.7774 14.2144 32.9488 14.2144 32.0328ZM58.9297 37.9775C58.9297 44.4529 49.4914 49.7223 37.8931 49.7223C26.293 49.7223 16.8566 44.4534 16.8566 37.9775C16.8566 37.7492 16.8708 37.5242 16.8934 37.2996C16.964 36.6113 17.1445 35.9381 17.4194 35.2859C18.1325 33.5952 19.5005 32.0438 21.3691 30.721C21.967 30.2976 22.6147 29.8977 23.3083 29.5245C27.0934 27.4878 32.2341 26.2315 37.8931 26.2315C43.6341 26.2315 48.8443 27.5234 52.6419 29.6124C53.3372 29.994 53.9832 30.4033 54.5781 30.8362C56.3724 32.139 57.684 33.658 58.3757 35.3095C58.6483 35.9638 58.8288 36.6374 58.8964 37.3273C58.9172 37.5435 58.9297 37.7592 58.9297 37.9775ZM60.5162 34.4976C59.6618 32.5583 58.1062 30.7844 56.0239 29.2732C56.6081 28.9377 57.304 28.7409 58.0521 28.7409C60.1113 28.7409 61.7862 30.2175 61.7862 32.0328C61.785 33.0142 61.2922 33.8946 60.5162 34.4976Z" fill="white"/>
<path d="M33.7729 35.4948C33.7729 33.7559 32.1734 32.2971 30.2004 32.2971C28.2279 32.2971 26.5737 33.7559 26.5737 35.4948C26.5737 37.2331 28.2285 38.6449 30.2004 38.6449C32.1734 38.6428 33.7729 37.2331 33.7729 35.4948Z" fill="white"/>
<path d="M45.8534 32.2961C43.881 32.2961 42.2214 33.7544 42.2214 35.4933C42.2214 37.2327 43.881 38.6433 45.8534 38.6433C47.8264 38.6433 49.4272 37.2337 49.4272 35.4933C49.426 33.7534 47.8264 32.2961 45.8534 32.2961Z" fill="white"/>
<path d="M44.8443 43.1292C43.5208 44.2944 41.2925 44.8602 38.0274 44.8602C38.0174 44.8602 38.0084 44.8628 37.9989 44.8628C37.9889 44.8628 37.9805 44.8602 37.971 44.8602C34.7054 44.8602 32.4765 44.2944 31.1548 43.1292C30.6982 42.7261 29.9572 42.7261 29.5006 43.1292C29.0434 43.5328 29.0434 44.1855 29.5006 44.587C31.2824 46.1583 34.0535 46.9231 37.971 46.9231C37.9811 46.9231 37.9894 46.9199 37.9989 46.9199C38.0084 46.9199 38.0174 46.9231 38.0274 46.9231C41.9444 46.9231 44.716 46.1583 46.4997 44.588C46.9574 44.1844 46.9574 43.5322 46.5009 43.1302C46.0431 42.7272 45.3021 42.7272 44.8443 43.1292Z" fill="white"/>
</g>
<defs>
<clipPath id="clip0">
<rect width="76" height="67" fill="white"/>
</clipPath>
</defs>
</svg>
