<svg width="1053" height="882" viewBox="0 0 1053 882" fill="none" xmlns="http://www.w3.org/2000/svg">
<path d="M524.239 882C264.756 882 53.6632 741.22 53.6632 568.174C53.6632 556.22 54.6665 544.383 56.6336 532.763C39.3211 522.078 25.0297 507.145 15.1174 489.385C5.2051 471.624 0.0011263 451.624 0 431.287C0.0364336 399.695 12.6069 369.408 34.9542 347.067C57.3016 324.727 87.6014 312.157 119.208 312.115C148.577 312.115 176.569 322.851 198.227 342.041C279.844 289.681 389.629 256.727 510.745 254.447L590.256 11.8955L607.606 15.9852L608.019 16.0836L793.342 59.694C800.903 42.0007 813.492 26.9138 829.549 16.3029C845.605 5.692 864.424 0.0235541 883.673 0C909.7 0.0312302 934.652 10.3809 953.055 28.7783C971.457 47.1756 981.807 72.1181 981.833 98.1333C981.801 124.145 971.449 149.083 953.048 167.476C934.646 185.869 909.697 196.216 883.673 196.247C857.668 196.221 832.733 185.892 814.334 167.523C795.934 149.154 785.57 124.244 785.513 98.2513L616.419 58.4553L552.035 254.879C668.745 259.421 774.143 292.473 852.828 343.693C874.81 323.348 903.68 312.073 933.638 312.135C965.248 312.171 995.553 324.739 1017.9 347.08C1040.26 369.421 1052.83 399.712 1052.87 431.307C1052.96 452.442 1047.39 473.218 1036.74 491.474C1026.08 509.731 1010.73 524.802 992.278 535.122C993.989 545.995 994.875 557.006 994.875 568.174C994.835 741.22 783.723 882 524.239 882ZM96.94 530.974C94.3246 543.201 93.0059 555.67 93.0058 568.174C93.0058 719.552 286.453 842.676 524.239 842.676C762.026 842.676 955.473 719.533 955.473 568.174C955.473 556.141 954.253 544.285 951.873 532.645C950.59 529.976 949.924 527.053 949.926 524.092C936.766 472.44 900.866 425.546 849.012 387.755C845.712 386.558 842.797 384.493 840.573 381.778C761.75 327.609 649.132 293.653 524.239 293.653C400.605 293.653 288.951 326.941 210.247 380.185C208.099 382.624 205.393 384.507 202.358 385.671C149.384 423.481 112.559 470.69 98.8875 522.794C98.8461 525.396 98.2842 527.963 97.2351 530.344C97.1367 530.561 97.0581 530.777 96.94 530.974ZM885.699 367.405C931.317 403.878 964.797 447.312 981.911 494.972C991.768 487.544 999.755 477.919 1005.24 466.863C1010.72 455.808 1013.54 443.626 1013.48 431.287C1013.46 410.117 1005.04 389.819 990.063 374.849C975.086 359.879 954.779 351.46 933.599 351.439C916.32 351.415 899.505 357.02 885.699 367.405ZM119.208 351.439C98.0309 351.465 77.729 359.887 62.7564 374.856C47.7838 389.825 39.3634 410.12 39.3425 431.287C39.3425 455.137 49.965 477.296 67.5905 492.239C85.275 444.952 119.09 401.873 164.885 365.753C151.478 356.433 135.538 351.438 119.208 351.439ZM883.653 39.3044C851.235 39.3044 824.836 65.6909 824.836 98.1136C824.836 130.536 851.235 156.903 883.653 156.903C916.072 156.903 942.47 130.536 942.47 98.1136C942.47 65.6909 916.091 39.3044 883.653 39.3044ZM526.384 770.084C447.6 770.084 392.088 752.88 356.699 717.488C353.011 713.798 350.94 708.796 350.941 703.58C350.943 698.364 353.018 693.363 356.709 689.676C360.4 685.989 365.405 683.919 370.624 683.921C375.842 683.923 380.846 685.996 384.534 689.686C412.172 717.311 458.557 730.76 526.384 730.76C594.19 730.76 640.615 717.311 668.292 689.686C670.118 687.861 672.286 686.415 674.672 685.428C677.058 684.441 679.615 683.934 682.197 683.935C684.779 683.935 687.335 684.445 689.72 685.433C692.105 686.422 694.272 687.87 696.097 689.695C697.922 691.521 699.37 693.688 700.357 696.073C701.345 698.457 701.852 701.013 701.851 703.594C701.85 706.174 701.341 708.73 700.352 711.114C699.363 713.498 697.914 715.664 696.088 717.488C660.66 752.88 605.167 770.084 526.384 770.084Z" fill="black" fillOpacity="0.5"/>
<path d="M59.0985 533.18L59.3796 531.52L57.9466 530.635C40.9968 520.174 27.005 505.555 17.3004 488.166C7.59618 470.778 2.50136 451.199 2.5 431.288C2.53607 400.36 14.8429 370.707 36.7217 348.835C58.601 326.963 88.2663 314.656 119.211 314.615C147.966 314.616 175.368 325.126 196.569 343.912L197.985 345.167L199.577 344.145C280.757 292.065 390.079 259.219 510.792 256.946L512.567 256.913L513.121 255.225L591.917 14.8555L607.027 18.4173L607.033 18.4186L607.441 18.5156L607.447 18.5171L792.77 62.1275L794.815 62.6089L795.641 60.6764C803.01 43.4331 815.279 28.7298 830.927 18.3886C846.575 8.04799 864.914 2.52358 883.673 2.5C909.037 2.53128 933.354 12.6177 951.287 30.5463C969.22 48.4747 979.306 72.781 979.333 98.1326C979.301 123.481 969.213 147.783 951.28 165.707C933.348 183.632 909.034 193.716 883.673 193.747C858.33 193.721 834.031 183.654 816.1 165.754C798.169 147.853 788.069 123.577 788.013 98.2458L788.009 96.2703L786.086 95.8177L616.992 56.0218L614.758 55.4961L614.043 57.6766L549.659 254.1L548.627 257.248L551.938 257.377C668.255 261.904 773.204 294.844 851.464 345.788L853.097 346.85L854.526 345.527C876.044 325.612 904.306 314.575 933.633 314.635H933.635C964.583 314.671 994.254 326.975 1016.14 348.848C1038.02 370.721 1050.33 400.377 1050.37 431.31V431.318C1050.46 452.007 1045.01 472.343 1034.58 490.214C1024.15 508.085 1009.12 522.838 991.058 532.94L989.538 533.79L989.808 535.511C991.5 546.258 992.375 557.139 992.375 568.174C992.355 653.599 940.236 731.37 855.462 787.899C770.706 844.416 653.555 879.5 524.239 879.5C394.924 879.5 277.777 844.416 193.032 787.899C108.268 731.37 56.1632 653.599 56.1632 568.174C56.1632 556.36 57.1547 544.663 59.0985 533.18ZM94.7833 529.71L94.5824 530.044L94.4953 530.451C91.8431 542.85 90.5059 555.495 90.5058 568.174C90.5058 645.017 139.599 714.326 218.11 764.301C296.653 814.296 404.943 845.176 524.239 845.176C643.536 845.176 751.826 814.291 830.369 764.294C908.88 714.316 957.973 645.007 957.973 568.174C957.973 555.971 956.736 543.947 954.323 532.144L954.26 531.841L954.126 531.561C953.006 529.231 952.424 526.679 952.426 524.093L952.426 523.779L952.348 523.475C939.007 471.11 902.668 423.766 850.484 385.735L850.198 385.526L849.865 385.405C846.988 384.361 844.446 382.561 842.507 380.194L842.282 379.919L841.989 379.718C762.684 325.217 649.552 291.153 524.239 291.153C400.189 291.153 288.028 324.547 208.846 378.115L208.581 378.294L208.37 378.533C206.49 380.669 204.12 382.317 201.463 383.337L201.165 383.451L200.906 383.636C147.599 421.683 110.329 469.34 96.4693 522.16L96.3926 522.452L96.3878 522.754C96.3518 525.018 95.8637 527.252 94.9523 529.325C94.9186 529.4 94.8887 529.469 94.8663 529.521L94.8517 529.556C94.8334 529.598 94.8212 529.627 94.8083 529.656C94.7971 529.681 94.7899 529.696 94.7862 529.704C94.7842 529.708 94.7833 529.71 94.7833 529.71ZM884.196 365.407L881.62 367.345L884.138 369.358C929.475 405.606 962.632 448.68 979.558 495.817L980.705 499.012L983.416 496.969C993.583 489.307 1001.82 479.378 1007.48 467.974C1013.13 456.569 1016.04 444.003 1015.98 431.275C1015.96 409.446 1007.27 388.517 991.83 373.081C976.385 357.643 955.444 348.961 933.602 348.939C915.78 348.914 898.436 354.696 884.196 365.407ZM119.208 348.939H119.205C97.3661 348.966 76.4296 357.651 60.9888 373.088C45.548 388.526 36.864 409.455 36.8425 431.285V431.287C36.8425 455.885 47.7984 478.737 65.9738 494.146L68.6864 496.446L69.9321 493.115C87.4245 446.342 120.918 403.615 166.433 367.716L169.082 365.627L166.312 363.701C152.486 354.089 136.048 348.938 119.208 348.939ZM382.766 691.453L382.767 691.454C411.118 719.792 458.346 733.26 526.384 733.26C594.402 733.26 641.668 719.791 670.058 691.455L670.059 691.454C671.653 689.862 673.545 688.599 675.628 687.738C677.71 686.877 679.942 686.434 682.196 686.435C684.45 686.435 686.681 686.88 688.763 687.743C690.845 688.605 692.736 689.87 694.329 691.463C695.922 693.056 697.186 694.948 698.047 697.029C698.909 699.11 699.352 701.341 699.351 703.593C699.35 705.845 698.906 708.075 698.043 710.156C697.18 712.236 695.915 714.127 694.321 715.719L696.088 717.488L694.321 715.719C659.57 750.435 604.872 767.584 526.384 767.584C447.894 767.584 393.178 750.434 358.467 715.72C355.247 712.5 353.44 708.133 353.441 703.581C353.443 699.028 355.254 694.663 358.476 691.445C361.698 688.226 366.067 686.419 370.623 686.421C375.178 686.422 379.546 688.233 382.766 691.453ZM883.653 36.8044C849.855 36.8044 822.336 64.3096 822.336 98.1136C822.336 131.919 849.856 159.403 883.653 159.403C917.451 159.403 944.97 131.919 944.97 98.1136C944.97 64.3102 917.472 36.8044 883.653 36.8044Z" stroke="#FF4500" strokeOpacity="0.2" strokeWidth="5"/>
</svg>

