<svg id="SvgjsSvg1001" width="288" height="288" xmlns="http://www.w3.org/2000/svg" version="1.1" xmlns:xlink="http://www.w3.org/1999/xlink" xmlns:svgjs="http://svgjs.com/svgjs"><circle id="SvgjsCircle1013" r="144" cx="144" cy="144" transform="matrix(0.9167,0,0,0.9167,11.995200000000011,11.995200000000011)" fill="#ff4500"></circle><defs id="SvgjsDefs1002"></defs><g id="SvgjsG1008" transform="matrix(0.68,0,0,0.68,47.14247558593749,46.08)"><!--?xml version="1.0" encoding="UTF-8" standalone="no"?--><svg xmlns:dc="http://purl.org/dc/elements/1.1/" xmlns:cc="http://creativecommons.org/ns#" xmlns:rdf="http://www.w3.org/1999/02/22-rdf-syntax-ns#" xmlns:svg="http://www.w3.org/2000/svg" xmlns="http://www.w3.org/2000/svg" xmlns:sodipodi="http://sodipodi.sourceforge.net/DTD/sodipodi-0.dtd" xmlns:inkscape="http://www.inkscape.org/namespaces/inkscape" width="288" height="288" viewBox="0 0 64 64" id="svg5742" version="1.1" inkscape:version="0.91 r" sodipodi:docname="Analytics-analyze-business-chart-diagram-report.svg">
  <defs id="defs5744"></defs>
  <sodipodi:namedview id="base" pagecolor="#ffffff" bordercolor="#666666" borderopacity="1.0" inkscape:pageopacity="0.0" inkscape:pageshadow="2" inkscape:zoom="11.313709" inkscape:cx="30.378388" inkscape:cy="45.267801" inkscape:document-units="px" inkscape:current-layer="layer1" showgrid="true" units="px" inkscape:window-width="1309" inkscape:window-height="744" inkscape:window-x="57" inkscape:window-y="24" inkscape:window-maximized="1" showguides="true" inkscape:guide-bbox="true" inkscape:snap-global="false"></sodipodi:namedview>
  
  <g inkscape:label="Layer 1" inkscape:groupmode="layer" id="layer1" transform="translate(0,-988.36216)" fill="#fefefe" class="color000 svgShape">
    <path style="color: rgb(0, 0, 0); font: medium sans-serif; text-indent: 0px; text-align: start; text-decoration: none solid rgb(0, 0, 0); letter-spacing: normal; word-spacing: normal; text-transform: none; direction: ltr; writing-mode: lr-tb; baseline-shift: baseline; text-anchor: start; white-space: normal; clip-rule: nonzero; display: inline; overflow: visible; visibility: visible; opacity: 1; isolation: auto; mix-blend-mode: normal; color-interpolation: srgb; color-interpolation-filters: linearrgb; fill-opacity: 1; fill-rule: nonzero; stroke: none; stroke-width: 1; stroke-linecap: round; stroke-linejoin: round; stroke-miterlimit: 4; stroke-dasharray: none; stroke-dashoffset: 0; stroke-opacity: 1; color-rendering: auto; image-rendering: auto; shape-rendering: auto; text-rendering: auto;" d="M 35.113281 4.265625 L 35.113281 4.2675781 C 32.45992 4.2675481 29.806744 5.2790713 27.785156 7.3007812 C 27.274811 7.811167 26.83073 8.3606884 26.449219 8.9414062 L 5.6914062 8.9414062 C 5.0088162 8.9414062 4.4433594 9.5068531 4.4433594 10.189453 L 4.4433594 32.517578 C 4.4433594 33.200178 5.0087599 33.765625 5.6914062 33.765625 L 20.992188 33.765625 L 20.992188 41.462891 L 19.970703 43.234375 L 8.2851562 49.978516 C 7.8781383 49.787716 7.4583993 49.610675 7.0058594 49.609375 L 7.0039062 49.609375 C 5.3019445 49.609375 3.9121094 51.001125 3.9121094 52.703125 C 3.9121094 54.405125 5.3019679 55.794922 7.0039062 55.794922 C 8.6762185 55.794922 10.019166 54.440697 10.066406 52.779297 L 20.992188 46.46875 L 20.992188 54.128906 C 20.139315 54.696906 19.557301 55.599425 19.556641 56.640625 C 19.556641 58.342625 20.9465 59.734375 22.648438 59.734375 C 24.350375 59.734375 25.740234 58.342625 25.740234 56.640625 C 25.738634 55.600525 25.156621 54.698359 24.304688 54.130859 L 24.304688 46.46875 L 35.113281 52.708984 C 35.110781 52.754984 35.101962 52.800956 35.101562 52.847656 C 35.101562 54.549756 36.491422 55.939453 38.193359 55.939453 C 39.895297 55.939453 41.285156 54.549756 41.285156 52.847656 C 41.285156 51.145756 39.89532 49.753906 38.193359 49.753906 L 38.191406 49.753906 C 37.808445 49.754706 37.448195 49.887591 37.09375 50.025391 L 25.326172 43.230469 L 24.304688 41.458984 L 24.304688 33.765625 L 39.507812 33.765625 C 40.19046 33.765625 40.753906 33.200178 40.753906 32.517578 L 40.753906 23.203125 C 41.191232 22.913783 41.616173 22.599533 42.015625 22.238281 L 45.109375 25.332031 C 45.30464 25.527215 45.621141 25.527215 45.816406 25.332031 L 47.046875 24.101562 L 60.400391 37.455078 C 59.325474 39.187478 57.760504 40.715547 55.916016 41.935547 L 42.564453 28.583984 L 43.798828 27.349609 C 43.993991 27.154348 43.993991 26.837839 43.798828 26.642578 L 42.255859 25.099609 C 41.784535 24.61125 41.060423 25.335364 41.548828 25.806641 L 42.738281 26.996094 L 41.503906 28.230469 C 41.308743 28.42573 41.308743 28.742239 41.503906 28.9375 L 55.521484 42.955078 C 55.68633 43.119853 55.943152 43.147249 56.140625 43.023438 C 58.355319 41.627737 60.26118 39.799256 61.496094 37.660156 C 61.609541 37.464472 61.577508 37.216984 61.417969 37.056641 L 47.400391 23.039062 C 47.205126 22.843878 46.888624 22.843878 46.693359 23.039062 L 45.462891 24.269531 L 42.441406 21.248047 C 42.246141 21.052863 41.92964 21.052863 41.734375 21.248047 C 38.073321 24.910447 32.153249 24.909547 28.492188 21.248047 C 24.831108 17.586847 24.83118 11.667119 28.492188 8.0058594 C 32.153224 4.3446094 38.073797 4.3445294 41.734375 8.0058594 C 44.462175 10.733579 45.153024 14.717184 43.818359 18.083984 C 43.572377 18.70374 44.501944 19.072832 44.748047 18.453125 C 46.226123 14.724625 45.453926 10.311268 42.441406 7.2988281 C 40.420042 5.2770481 37.766642 4.265645 35.113281 4.265625 z M 29.734375 8.65625 C 29.604615 8.6598619 29.481345 8.713793 29.390625 8.8066406 C 26.129483 12.067971 26.13704 17.378838 29.40625 20.648438 C 29.877575 21.136793 30.601683 20.412683 30.113281 19.941406 C 27.225075 17.053006 27.219813 12.393675 30.097656 9.515625 C 30.426495 9.1978185 30.191461 8.6418228 29.734375 8.65625 z M 35.109375 8.734375 L 35.109375 8.7363281 C 33.602647 8.7363881 32.095761 9.3104212 30.949219 10.457031 C 30.458346 10.928285 31.184997 11.654936 31.65625 11.164062 C 33.567211 9.2529825 36.65094 9.2523525 38.5625 11.164062 C 40.472052 13.073773 40.472315 16.152453 38.566406 18.064453 C 37.743611 18.835553 36.811477 19.302756 35.869141 19.472656 C 35.212818 19.591106 35.390569 20.575577 36.046875 20.457031 C 37.193428 20.250331 38.304187 19.685563 39.257812 18.789062 L 39.269531 18.775391 C 41.562697 16.481591 41.562946 12.748718 39.269531 10.455078 C 38.12268 9.3081381 36.616103 8.734305 35.109375 8.734375 z M 5.6914062 9.9414062 L 25.875 9.9414062 C 23.904468 13.830846 24.537058 18.708803 27.785156 21.957031 C 27.960074 22.13197 28.146274 22.287777 28.330078 22.447266 L 27.294922 23.785156 C 26.938551 23.587123 26.535888 23.464844 26.101562 23.464844 C 25.391749 23.464844 24.754508 23.770387 24.300781 24.251953 L 19.253906 20.5 C 19.480642 20.125246 19.619141 19.692223 19.619141 19.224609 C 19.619141 17.857609 18.501735 16.738281 17.134766 16.738281 C 15.767797 16.738281 14.648437 17.857609 14.648438 19.224609 C 14.648438 19.840305 14.883367 20.398421 15.257812 20.833984 L 11.238281 25.861328 C 10.97715 25.767495 10.700499 25.707031 10.408203 25.707031 C 9.0412341 25.707031 7.921875 26.826359 7.921875 28.193359 C 7.921875 29.560359 9.0412341 30.679688 10.408203 30.679688 C 11.775172 30.679688 12.894531 29.560359 12.894531 28.193359 C 12.894531 27.48013 12.58522 26.839343 12.099609 26.384766 L 16.048828 21.447266 C 16.378804 21.609892 16.743934 21.710938 17.134766 21.710938 C 17.671803 21.710938 18.166842 21.532905 18.574219 21.240234 L 23.775391 25.107422 C 23.678918 25.371955 23.617187 25.654362 23.617188 25.951172 C 23.617188 27.318172 24.734594 28.4375 26.101562 28.4375 C 27.468532 28.4375 28.587891 27.318172 28.587891 25.951172 C 28.587891 25.378901 28.385026 24.855098 28.056641 24.433594 L 29.115234 23.066406 C 32.265934 25.301078 36.373687 25.522856 39.753906 23.791016 L 39.753906 32.517578 C 39.753906 32.663778 39.653434 32.765625 39.507812 32.765625 L 5.6914062 32.765625 C 5.5457833 32.765625 5.4433594 32.663778 5.4433594 32.517578 L 5.4433594 10.189453 C 5.4433594 10.043113 5.545727 9.9414062 5.6914062 9.9414062 z M 35.109375 11.523438 C 34.312676 11.523407 33.517148 11.826641 32.912109 12.431641 C 32.73971 12.604047 32.599506 12.790767 32.480469 12.986328 L 29.625 12.433594 C 29.592215 12.426937 29.558845 12.421868 29.525391 12.421875 L 29.525391 12.423828 C 28.915383 12.422908 28.835297 13.307341 29.435547 13.416016 L 32.117188 13.931641 C 31.901399 14.975502 32.22074 16.094156 32.900391 16.816406 L 32.910156 16.828125 C 33.250158 17.168203 33.652826 17.401854 34.080078 17.550781 L 33.125 22.494141 C 32.953681 23.177341 34.010004 23.381494 34.105469 22.683594 L 35.064453 17.730469 C 35.876522 17.742031 36.692259 17.444471 37.308594 16.828125 C 37.617612 16.519325 37.847823 16.159044 38 15.777344 C 38.44381 14.658044 38.210118 13.333241 37.308594 12.431641 C 36.703659 11.826641 35.906074 11.523468 35.109375 11.523438 z M 35.109375 12.513672 L 35.109375 12.517578 C 35.648052 12.517578 36.187684 12.724772 36.601562 13.138672 C 37.218489 13.755672 37.370672 14.650703 37.070312 15.408203 C 36.966712 15.668103 36.812269 15.910594 36.601562 16.121094 C 35.776026 16.946694 34.455262 16.946394 33.626953 16.121094 C 32.986163 15.435094 32.787608 13.966266 33.619141 13.134766 C 34.03312 12.720866 34.570698 12.513672 35.109375 12.513672 z M 17.134766 17.738281 C 17.961249 17.738281 18.619141 18.398009 18.619141 19.224609 C 18.619141 20.051309 17.961249 20.710938 17.134766 20.710938 C 16.308282 20.710938 15.648437 20.051309 15.648438 19.224609 C 15.648438 18.398009 16.308282 17.738281 17.134766 17.738281 z M 26.101562 24.464844 C 26.928047 24.464844 27.587891 25.124572 27.587891 25.951172 C 27.587891 26.777772 26.928046 27.4375 26.101562 27.4375 C 25.27508 27.4375 24.617188 26.777772 24.617188 25.951172 C 24.617188 25.124572 25.27508 24.464844 26.101562 24.464844 z M 10.408203 26.707031 C 11.234687 26.707031 11.894531 27.366759 11.894531 28.193359 C 11.894531 29.019959 11.234687 29.679688 10.408203 29.679688 C 9.5817196 29.679688 8.921875 29.019959 8.921875 28.193359 C 8.921875 27.366759 9.5817196 26.707031 10.408203 26.707031 z M 21.992188 33.765625 L 23.304688 33.765625 L 23.304688 41.591797 C 23.304514 41.679512 23.327413 41.765731 23.371094 41.841797 L 24.527344 43.845703 C 24.571308 43.922001 24.634641 43.98533 24.710938 44.029297 L 36.75 50.984375 C 36.897609 51.070125 37.078763 51.074368 37.230469 50.996094 C 37.528505 50.841194 37.858394 50.758513 38.193359 50.757812 C 39.354797 50.757812 40.285156 51.690062 40.285156 52.851562 C 40.285156 54.013263 39.35482 54.943359 38.193359 54.943359 C 37.031899 54.943359 36.101562 54.013262 36.101562 52.851562 C 36.102762 52.740462 36.112029 52.629431 36.130859 52.519531 C 36.166378 52.31332 36.069745 52.10682 35.888672 52.001953 L 24.054688 45.167969 C 23.721128 44.975465 23.304302 45.21644 23.304688 45.601562 L 23.304688 54.324219 C 23.304846 54.513844 23.412251 54.687031 23.582031 54.771484 C 24.291703 55.125084 24.73829 55.847625 24.740234 56.640625 C 24.740234 57.802225 23.809898 58.734375 22.648438 58.734375 C 21.487631 58.734375 20.557689 57.803278 20.556641 56.642578 C 20.557841 55.848978 21.004628 55.125284 21.714844 54.771484 C 21.884625 54.687031 21.992029 54.513844 21.992188 54.324219 L 21.992188 45.603516 C 21.992573 45.218393 21.575747 44.977418 21.242188 45.169922 L 9.3359375 52.048828 C 9.1670177 52.146309 9.0701861 52.33312 9.0878906 52.527344 C 9.0934606 52.587344 9.0972963 52.646131 9.0976562 52.707031 C 9.0966063 53.867731 8.1647127 54.796875 7.0039062 54.796875 C 5.8424442 54.796875 4.9121094 53.866678 4.9121094 52.705078 C 4.9121094 51.543478 5.8424675 50.611328 7.0039062 50.611328 C 7.3954147 50.611328 7.7777424 50.723741 8.109375 50.931641 C 8.2661419 51.030184 8.4645301 51.033797 8.625 50.941406 L 20.585938 44.035156 C 20.662233 43.991189 20.725567 43.92786 20.769531 43.851562 L 21.925781 41.847656 C 21.969462 41.77159 21.992361 41.685372 21.992188 41.597656 L 21.992188 33.765625 z " transform="translate(0,988.36216)" id="rect4144-6-5" fill="#ffffff" class="colorrgb000 svgShape"></path>
  </g>

	<metadata>
		<rdf:rdf xmlns:rdf="http://www.w3.org/1999/02/22-rdf-syntax-ns#" xmlns:rdfs="http://www.w3.org/2000/01/rdf-schema#" xmlns:dc="http://purl.org/dc/elements/1.1/">
			<rdf:description about="https://iconscout.com/legal#licenses" dc:title="Analytics-analyze-business-chart-diagram-report" dc:description="Analytics-analyze-business-chart-diagram-report" dc:publisher="Iconscout" dc:date="2017-02-15" dc:format="image/svg+xml" dc:language="en">
				<dc:creator>
					<rdf:bag>
						<rdf:li>Devendra Karkar</rdf:li>
					</rdf:bag>
				</dc:creator>
			</rdf:description>
		</rdf:rdf>
    </metadata></svg>
</g></svg>